<svg width="388" height="325" viewBox="0 0 388 325" fill="none" xmlns="http://www.w3.org/2000/svg">
<g clip-path="url(#clip0_9_2)">
<path d="M70.7424 38.3322C70.0134 38.4177 69.3109 38.6719 68.6844 39.0769C68.0579 39.482 67.5226 40.028 67.1162 40.6765C66.7099 41.3251 66.4423 42.0604 66.3325 42.8306C66.2226 43.6009 66.273 44.3874 66.4803 45.1347L51.9747 56.1446L60.6212 59.679L73.0703 48.6818C74.2291 48.2288 75.1913 47.34 75.7744 46.1839C76.3575 45.0277 76.5211 43.6845 76.2342 42.4088C75.9473 41.1331 75.2297 40.0135 74.2176 39.2621C73.2054 38.5108 71.9689 38.1799 70.7424 38.3322Z" fill="#FFB8B8"/>
<path d="M69.3934 54.9162L51.4007 74.146C48.9348 76.7644 45.6833 78.3824 42.211 78.719L19.978 80.8737C19.1629 80.9563 18.3405 80.8645 17.5594 80.6038C16.7783 80.3431 16.0543 79.9187 15.4302 79.3557C14.5668 78.5881 13.9248 77.5774 13.5779 76.4397C13.231 75.3019 13.1932 74.0833 13.469 72.9238C13.7448 71.7644 14.323 70.711 15.137 69.8849C15.9511 69.0587 16.968 68.4932 18.0711 68.2533L40.7846 63.1163L61.4637 46.9252C61.7511 46.7533 62.0759 46.6643 62.4058 46.6669C62.7357 46.6695 63.0592 46.7637 63.3442 46.9401L68.9678 51.8333C69.3062 52.0303 69.578 52.3348 69.7451 52.7042C69.9122 53.0735 69.9663 53.4892 69.8997 53.8929C69.8341 54.2812 69.6573 54.6385 69.3934 54.9162Z" fill="#2F2E41"/>
<path d="M285.115 65.2506C285.249 63.9379 284.999 62.6132 284.399 61.4565C283.8 60.2999 282.879 59.3675 281.763 58.7859L169.787 0.653809C169.075 0.283771 168.301 0.0663289 167.51 0.0139046C166.719 -0.0385198 165.926 0.0750958 165.176 0.348266C164.426 0.621437 163.734 1.04881 163.14 1.60599C162.546 2.16317 162.06 2.83923 161.712 3.59559L161.71 3.60006L119.712 94.8723C119.011 96.4011 118.909 98.1628 119.429 99.771C119.949 101.379 121.048 102.703 122.486 103.452L234.461 161.584C235.901 162.328 237.559 162.436 239.073 161.884C240.588 161.332 241.834 160.164 242.539 158.638L284.537 67.3655C284.844 66.7015 285.039 65.9858 285.115 65.2506Z" fill="#F2F2F2"/>
<path d="M219.515 267.83H74.2206C72.3913 267.828 70.6376 267.055 69.3442 265.681C68.0507 264.307 67.3231 262.444 67.3211 260.501V50.9926C67.3231 49.0496 68.0507 47.1868 69.3442 45.8129C70.6376 44.4391 72.3913 43.6662 74.2206 43.6641H219.515C221.344 43.6662 223.098 44.4391 224.392 45.8129C225.685 47.1868 226.413 49.0496 226.415 50.9926V260.501C226.413 262.444 225.685 264.307 224.392 265.681C223.098 267.055 221.344 267.828 219.515 267.83Z" fill="white"/>
<path d="M112.758 106.138C117.993 106.138 122.237 101.63 122.237 96.069C122.237 90.5082 117.993 86.0002 112.758 86.0002C107.522 86.0002 103.278 90.5082 103.278 96.069C103.278 101.63 107.522 106.138 112.758 106.138Z" fill="#E6E6E6"/>
<path d="M98.3099 123.588C99.6494 124.397 101.051 125.083 102.5 125.639L102.756 125.733C105.675 126.822 108.746 127.376 111.84 127.372C112.462 127.372 113.062 127.349 113.622 127.304C114.985 127.215 116.34 127.017 117.674 126.71C118.407 126.54 119.137 126.337 119.844 126.107C120.015 126.053 120.173 126.001 120.346 125.943C123.226 124.951 125.931 123.462 128.355 121.535C128.16 121.144 127.947 120.764 127.716 120.396C126.471 118.374 124.769 116.714 122.767 115.566C120.765 114.418 118.525 113.819 116.25 113.822H111.261C108.629 113.822 106.053 114.626 103.84 116.138C101.626 117.649 99.8684 119.805 98.7755 122.347C98.6007 122.752 98.4454 123.166 98.3099 123.588Z" fill="#E6E6E6"/>
<path d="M115.974 126.46C115.656 126.485 115.35 126.599 115.086 126.791C116.424 126.702 117.753 126.506 119.063 126.204L115.974 126.46Z" fill="#2F2E41"/>
<path d="M113.332 68.7456C107.227 68.7463 101.293 70.8876 96.4506 74.8372C91.6084 78.7869 88.1292 84.3239 86.5528 90.5888C84.9765 96.8538 85.3912 103.496 87.7327 109.485C90.0743 115.474 94.2115 120.475 99.5024 123.71C100.907 124.574 102.381 125.303 103.908 125.888L104.167 125.984C107.112 127.082 110.211 127.641 113.332 127.637C113.936 127.637 114.54 127.616 115.133 127.568C116.508 127.478 117.873 127.278 119.219 126.969C119.973 126.795 120.711 126.588 121.41 126.36C121.579 126.307 121.739 126.254 121.913 126.196C128.188 124.025 133.528 119.548 136.973 113.569C140.419 107.591 141.743 100.503 140.709 93.5801C139.675 86.6572 136.35 80.353 131.332 75.8008C126.314 71.2487 119.931 68.747 113.332 68.7456ZM129.417 120.25C127.025 122.21 124.333 123.718 121.46 124.707C121.305 124.76 121.145 124.813 120.985 124.866C120.322 125.083 119.623 125.274 118.905 125.438C117.632 125.733 116.339 125.924 115.038 126.01C114.475 126.053 113.901 126.074 113.332 126.074C110.378 126.076 107.445 125.547 104.656 124.51L104.412 124.42C102.893 123.841 101.43 123.11 100.041 122.237C95.2047 119.213 91.4089 114.62 89.2117 109.134C87.0146 103.649 86.5319 97.5589 87.8346 91.7601C89.1373 85.9614 92.1567 80.7594 96.4491 76.9185C100.742 73.0776 106.081 70.8004 111.682 70.4215C117.283 70.0426 122.851 71.5819 127.567 74.8134C132.284 78.0448 135.9 82.7979 137.885 88.3743C139.87 93.9506 140.118 100.056 138.594 105.794C137.07 111.531 133.853 116.598 129.417 120.25Z" fill="#CCCCCC"/>
<path d="M219.515 267.83H74.2206C72.3913 267.828 70.6376 267.055 69.3442 265.681C68.0507 264.307 67.3231 262.444 67.3211 260.501V50.9926C67.3231 49.0496 68.0507 47.1868 69.3442 45.8129C70.6376 44.4391 72.3913 43.6662 74.2206 43.6641H219.515C221.344 43.6662 223.098 44.4391 224.392 45.8129C225.685 47.1868 226.413 49.0496 226.415 50.9926V260.501C226.413 262.444 225.685 264.307 224.392 265.681C223.098 267.055 221.344 267.828 219.515 267.83ZM74.2206 44.5262C72.6065 44.5282 71.0592 45.2101 69.9179 46.4223C68.7766 47.6346 68.1346 49.2782 68.1328 50.9926V260.501C68.1346 262.216 68.7766 263.859 69.9179 265.072C71.0592 266.284 72.6065 266.966 74.2206 266.968H219.515C221.129 266.966 222.677 266.284 223.818 265.072C224.959 263.859 225.601 262.216 225.603 260.501V50.9926C225.601 49.2782 224.959 47.6346 223.818 46.4223C222.677 45.2101 221.129 44.5282 219.515 44.5262L74.2206 44.5262Z" fill="#CCCCCC"/>
<path d="M204.804 109.738H150.274C149.412 109.738 148.585 109.374 147.975 108.726C147.365 108.078 147.022 107.199 147.022 106.283C147.022 105.367 147.365 104.488 147.975 103.84C148.585 103.192 149.412 102.828 150.274 102.828H204.804C205.667 102.828 206.494 103.192 207.104 103.84C207.714 104.488 208.057 105.367 208.057 106.283C208.057 107.199 207.714 108.078 207.104 108.726C206.494 109.374 205.667 109.738 204.804 109.738Z" fill="#E6E6E6"/>
<path d="M191.328 154.458H88.9311C88.0685 154.458 87.2412 154.094 86.6313 153.446C86.0213 152.798 85.6786 151.92 85.6786 151.003C85.6786 150.087 86.0213 149.208 86.6313 148.561C87.2412 147.913 88.0685 147.549 88.9311 147.549H191.328C192.191 147.549 193.018 147.913 193.628 148.561C194.238 149.208 194.58 150.087 194.58 151.003C194.58 151.92 194.238 152.798 193.628 153.446C193.018 154.094 192.191 154.458 191.328 154.458Z" fill="#E6E6E6"/>
<path d="M280.126 125.133C280.26 123.82 280.01 122.496 279.41 121.339C278.811 120.182 277.89 119.25 276.774 118.668L164.798 60.5362C164.086 60.1662 163.312 59.9487 162.521 59.8963C161.73 59.8439 160.937 59.9575 160.187 60.2307C159.437 60.5039 158.745 60.9312 158.151 61.4884C157.557 62.0456 157.071 62.7216 156.723 63.478L156.721 63.4825L114.723 154.755C114.022 156.284 113.92 158.045 114.44 159.653C114.96 161.262 116.059 162.585 117.496 163.334L229.472 221.466C230.912 222.211 232.57 222.319 234.084 221.767C235.598 221.214 236.845 220.047 237.55 218.52L279.548 127.248C279.855 126.584 280.05 125.868 280.126 125.133Z" fill="white"/>
<path d="M280.126 125.133C280.26 123.82 280.01 122.496 279.41 121.339C278.811 120.182 277.89 119.25 276.774 118.668L164.798 60.5362C164.086 60.1662 163.312 59.9487 162.521 59.8963C161.73 59.8439 160.937 59.9575 160.187 60.2307C159.437 60.5039 158.745 60.9312 158.151 61.4884C157.557 62.0456 157.071 62.7216 156.723 63.478L156.721 63.4825L114.723 154.755C114.022 156.284 113.92 158.045 114.44 159.653C114.96 161.262 116.059 162.585 117.496 163.334L229.472 221.466C230.912 222.211 232.57 222.319 234.084 221.767C235.598 221.214 236.845 220.047 237.55 218.52L279.548 127.248C279.855 126.584 280.05 125.868 280.126 125.133ZM236.911 218.189C236.29 219.536 235.19 220.566 233.854 221.054C232.518 221.541 231.054 221.446 229.784 220.788L117.808 162.656C116.54 161.996 115.57 160.828 115.111 159.409C114.652 157.989 114.742 156.435 115.361 155.086L157.359 63.8139C157.981 62.4666 159.081 61.4362 160.417 60.9489C161.753 60.4615 163.216 60.557 164.486 61.2142L276.462 119.346C277.731 120.007 278.701 121.175 279.159 122.594C279.618 124.013 279.528 125.568 278.91 126.917L236.911 218.189Z" fill="#3F3D56"/>
<path d="M267.912 129.283L238.586 193.016C238.391 193.441 238.044 193.767 237.622 193.921C237.201 194.075 236.739 194.044 236.338 193.837L134.481 140.958C134.408 140.92 134.339 140.877 134.273 140.827C133.939 140.586 133.698 140.225 133.594 139.81C133.491 139.395 133.531 138.954 133.709 138.569L163.035 74.8361C163.132 74.6255 163.267 74.4371 163.432 74.2818C163.597 74.1266 163.79 74.0074 163.999 73.9312C164.207 73.855 164.428 73.8232 164.649 73.8376C164.869 73.852 165.084 73.9124 165.283 74.0153L267.14 126.894C267.541 127.102 267.847 127.47 267.992 127.918C268.137 128.366 268.108 128.857 267.913 129.282L267.912 129.283Z" fill="#E6E6E6"/>
<path d="M178.489 126.046C186.636 126.046 193.24 119.031 193.24 110.378C193.24 101.725 186.636 94.7097 178.489 94.7097C170.342 94.7097 163.738 101.725 163.738 110.378C163.738 119.031 170.342 126.046 178.489 126.046Z" fill="#FF3438"/>
<path d="M200.087 175.334L135.073 141.581C134.991 141.54 134.913 141.491 134.839 141.435L191.62 100.825C191.97 100.57 192.377 100.418 192.8 100.385C193.223 100.352 193.647 100.439 194.028 100.637C194.409 100.835 194.734 101.136 194.969 101.511C195.205 101.886 195.342 102.321 195.368 102.77L198.535 151.449L198.688 153.779L200.087 175.334Z" fill="#3F3D56"/>
<path opacity="0.2" d="M200.087 175.334L177.89 163.81L196.523 152.655L197.864 151.851L198.535 151.449L198.688 153.779L200.087 175.334Z" fill="black"/>
<path d="M236.287 194.127L180.055 164.934L198.688 153.779L200.029 152.975L224.31 138.437C225.901 137.484 228.182 138.557 228.699 140.38C228.733 140.504 228.76 140.63 228.779 140.757L236.287 194.127Z" fill="#3F3D56"/>
<path d="M62.7847 199.689L68.9008 199.689L71.811 174.629L62.7832 174.63L62.7847 199.689Z" fill="#FFB8B8"/>
<path d="M61.2243 197.568L73.2698 197.568C74.2779 197.568 75.2766 197.779 76.208 198.188C77.1393 198.598 77.9856 199.199 78.6984 199.956C79.4113 200.713 79.9767 201.612 80.3625 202.601C80.7482 203.59 80.9468 204.651 80.9468 205.721V205.986L61.2247 205.987L61.2243 197.568Z" fill="#2F2E41"/>
<path d="M15.2422 195.553L21.5793 196.869L29.3763 171.533L20.0237 169.59L15.2422 195.553Z" fill="#FFB8B8"/>
<path d="M14.0307 193.019L26.5106 195.612L26.5111 195.612C27.5555 195.829 28.5495 196.263 29.4362 196.888C30.3229 197.513 31.0851 198.317 31.6791 199.255C32.2731 200.193 32.6874 201.246 32.8983 202.354C33.1092 203.462 33.1126 204.603 32.9082 205.713L32.8576 205.987L12.4244 201.742L14.0307 193.019Z" fill="#2F2E41"/>
<path d="M71.6833 113.246C71.4762 112.499 71.1174 111.809 70.632 111.225C70.1467 110.64 69.5467 110.176 68.8744 109.865C68.202 109.554 67.4735 109.403 66.7403 109.423C66.0071 109.444 65.287 109.634 64.6307 109.982L51.8815 96.7449L50.1224 106.407L62.499 117.496C63.1221 118.628 64.1147 119.478 65.2886 119.885C66.4625 120.292 67.7362 120.228 68.8682 119.704C70.0003 119.18 70.9122 118.233 71.431 117.043C71.9498 115.853 72.0396 114.502 71.6833 113.246Z" fill="#FFB8B8"/>
<path d="M24.3821 45.1115C31.1497 45.1115 36.6359 39.2842 36.6359 32.0958C36.6359 24.9075 31.1497 19.0801 24.3821 19.0801C17.6146 19.0801 12.1284 24.9075 12.1284 32.0958C12.1284 39.2842 17.6146 45.1115 24.3821 45.1115Z" fill="#FFB8B8"/>
<path d="M21.809 45.3108C22.4601 45.6134 23.7933 40.103 23.1961 39.0008C22.3079 37.3618 22.3604 37.3736 21.7708 36.2892C21.1812 35.2048 21.0493 33.7205 21.8128 32.7664C22.5764 31.8122 24.3433 31.9388 24.6917 33.1351C24.4676 30.8629 26.5835 29.0363 28.6795 28.523C30.7755 28.0097 32.9863 28.3284 35.0938 27.8717C37.5397 27.3416 40.0845 25.1638 39.1086 22.307C38.9412 21.8313 38.6905 21.3937 38.3697 21.0171C37.2422 19.6706 35.6651 19.0956 34.123 18.5397C30.915 17.3831 27.6192 16.212 24.2336 16.3397C21.444 16.4946 18.7574 17.51 16.5027 19.2614C14.2479 21.0129 12.5227 23.4246 11.5382 26.2013C11.3049 26.896 11.1241 27.6093 10.9977 28.3345C9.8356 34.9715 13.4641 41.5181 19.3575 44.0455L21.809 45.3108Z" fill="#2F2E41"/>
<path d="M18.8004 116.811C18.4879 116.611 18.2375 116.317 18.0799 115.967C17.9223 115.617 17.8644 115.226 17.9135 114.842L12.384 85.7477L6.77913 63.4191C6.1638 60.9724 6.34976 58.3763 7.30627 56.0565C8.26278 53.7368 9.93316 51.8313 12.0434 50.6526L15.7488 46.9286L23.8323 50.6277L27.6734 54.7761C30.4284 56.201 32.8723 58.2224 34.8479 60.7103C36.8235 63.1983 38.2872 66.0978 39.1449 69.2225L45.3056 91.6147L59.5331 114.098C59.7707 114.473 59.8818 114.922 59.8483 115.372C59.8149 115.822 59.6388 116.248 59.3489 116.578C57.3695 118.84 18.8004 116.811 18.8004 116.811Z" fill="#2F2E41"/>
<path d="M56.0756 114.744L35.0961 99.3024C32.2367 97.1831 30.1666 94.0668 29.2455 90.4948L23.3484 67.6234C23.1288 66.7855 23.0697 65.9094 23.1743 65.0469C23.2789 64.1843 23.5453 63.3528 23.9576 62.6014C24.5176 61.5639 25.3418 60.7152 26.3354 60.1529C27.3291 59.5905 28.452 59.3373 29.575 59.4223C30.6981 59.5074 31.7758 59.9271 32.6843 60.6335C33.5929 61.3398 34.2954 62.3041 34.7112 63.4155L43.4569 86.2662L62.0912 105.05C62.3009 105.321 62.4404 105.645 62.4958 105.99C62.5512 106.336 62.5207 106.691 62.4072 107.02L58.8584 113.759C58.7352 114.147 58.5006 114.485 58.1876 114.724C57.8745 114.964 57.4987 115.093 57.1129 115.094C56.7415 115.094 56.3793 114.972 56.0756 114.744Z" fill="#2F2E41"/>
<path d="M12.4909 191.674C12.3194 191.413 12.2096 191.112 12.1707 190.796C12.1318 190.481 12.1651 190.16 12.2676 189.86L21.9732 152.384L22.6907 115.662L55.3624 113.282L55.521 113.271L65.3615 132.215C68.4424 138.138 70.3285 144.678 70.8996 151.417L74.1425 189.164C74.1915 189.677 74.0491 190.19 73.7458 190.593C73.4425 190.996 73.0027 191.256 72.5207 191.318L62.6694 192.313C62.1948 192.375 61.7163 192.237 61.3362 191.929C60.956 191.621 60.7042 191.167 60.6344 190.665L56.6341 152.307L42.2408 126.475L37.4093 153.67L27.3998 191.226C27.2689 191.601 27.0338 191.925 26.7256 192.154C26.4175 192.384 26.0509 192.508 25.6745 192.512L13.9999 192.517C13.7027 192.518 13.4096 192.442 13.1465 192.295C12.8834 192.148 12.6583 191.935 12.4909 191.674Z" fill="#2F2E41"/>
<path d="M262.658 314.931H16.464C12.099 314.926 7.91417 313.082 4.82764 309.803C1.74111 306.525 0.00493071 302.08 0 297.443V153.832C0.00493071 149.195 1.74111 144.75 4.82764 141.472C7.91417 138.193 12.099 136.349 16.464 136.344H46.6493C50.745 136.34 54.6943 137.962 57.7227 140.89L90.4569 165.718C92.591 167.79 95.3781 168.937 98.2691 168.935H264.187C266.369 168.935 268.53 169.396 270.543 170.291C272.556 171.185 274.381 172.497 275.913 174.148C277.445 175.799 278.653 177.757 279.466 179.908C280.279 182.059 280.681 184.36 280.649 186.678L279.12 297.699C279.039 302.286 277.272 306.658 274.195 309.878C271.118 313.099 266.977 314.912 262.658 314.931Z" fill="white"/>
<path d="M260.471 306.452H17.9205C15.8148 306.45 13.796 305.56 12.3071 303.979C10.8181 302.397 9.98056 300.253 9.97818 298.016V152.056C9.98056 149.819 10.8181 147.675 12.3071 146.094C13.796 144.512 15.8148 143.622 17.9205 143.62C19.783 143.622 21.5686 144.409 22.8856 145.808C24.2026 147.207 24.9434 149.103 24.9454 151.082V287.947C24.9477 290.044 25.7326 292.053 27.1281 293.535C28.5235 295.018 30.4155 295.851 32.3889 295.854H259.652C260.781 295.84 261.881 296.229 262.778 296.958C263.675 297.687 264.315 298.714 264.598 299.874C264.915 300.975 264.876 302.157 264.486 303.232C264.097 304.306 263.38 305.211 262.45 305.802C261.86 306.21 261.174 306.435 260.471 306.452Z" fill="#F2F2F2"/>
<path d="M141.403 236.357L140.764 235.678C140.632 235.547 140.554 235.365 140.548 235.172C140.542 234.98 140.609 234.793 140.733 234.652C140.743 234.641 140.753 234.629 140.764 234.619L146.367 228.662C146.428 228.592 146.502 228.536 146.584 228.497C146.666 228.458 146.754 228.436 146.844 228.433C146.933 228.43 147.023 228.445 147.107 228.479C147.191 228.512 147.268 228.563 147.333 228.628C147.344 228.639 147.355 228.65 147.365 228.662L152.968 234.613C153.033 234.68 153.086 234.761 153.122 234.849C153.158 234.938 153.178 235.034 153.179 235.13C153.181 235.227 153.165 235.323 153.131 235.413C153.098 235.503 153.048 235.585 152.985 235.655L152.968 235.673L152.329 236.351C152.266 236.421 152.19 236.477 152.107 236.515C152.023 236.554 151.933 236.575 151.842 236.576C151.751 236.578 151.661 236.561 151.576 236.525C151.491 236.49 151.414 236.437 151.348 236.37L151.331 236.351L148.018 232.642V241.444C148.019 241.54 148.002 241.635 147.968 241.724C147.934 241.813 147.884 241.894 147.82 241.963C147.757 242.031 147.681 242.086 147.598 242.123C147.515 242.16 147.425 242.18 147.335 242.181L147.33 242.181H146.407C146.223 242.181 146.047 242.103 145.917 241.965C145.787 241.827 145.714 241.639 145.714 241.444V232.653L142.401 236.362C142.272 236.502 142.097 236.582 141.913 236.584C141.729 236.587 141.552 236.512 141.42 236.375L141.403 236.357Z" fill="#FF3438"/>
<path d="M146.856 223.252C149.105 223.252 151.303 223.96 153.173 225.287C155.043 226.614 156.5 228.5 157.361 230.707C158.221 232.914 158.446 235.342 158.008 237.685C157.569 240.028 156.486 242.18 154.896 243.869C153.306 245.558 151.28 246.708 149.074 247.174C146.869 247.64 144.582 247.401 142.505 246.487C140.427 245.572 138.651 244.024 137.402 242.038C136.153 240.052 135.486 237.717 135.486 235.329C135.489 232.126 136.687 229.056 138.819 226.792C140.951 224.528 143.841 223.254 146.856 223.252ZM146.856 221.662C144.311 221.662 141.824 222.463 139.708 223.965C137.592 225.467 135.942 227.601 134.969 230.099C133.995 232.596 133.74 235.344 134.236 237.995C134.733 240.646 135.958 243.081 137.758 244.993C139.557 246.904 141.85 248.206 144.346 248.733C146.842 249.26 149.429 248.99 151.78 247.955C154.131 246.921 156.141 245.169 157.554 242.922C158.968 240.674 159.723 238.032 159.723 235.329C159.723 231.704 158.367 228.228 155.954 225.665C153.541 223.102 150.269 221.662 146.856 221.662Z" fill="#3F3D56"/>
<path d="M262.658 314.931H16.464C12.099 314.926 7.91417 313.082 4.82764 309.803C1.74111 306.525 0.00493071 302.08 0 297.443V153.832C0.00493071 149.195 1.74111 144.75 4.82764 141.472C7.91417 138.193 12.099 136.349 16.464 136.344H46.6493C50.745 136.34 54.6943 137.962 57.7227 140.89L90.4569 165.718C92.591 167.79 95.3781 168.937 98.2691 168.935H264.187C266.369 168.935 268.53 169.396 270.543 170.291C272.556 171.185 274.381 172.497 275.913 174.148C277.445 175.799 278.653 177.757 279.466 179.908C280.279 182.059 280.681 184.36 280.649 186.678L279.12 297.699C279.039 302.286 277.272 306.658 274.195 309.878C271.118 313.099 266.977 314.912 262.658 314.931ZM16.464 137.404C12.3635 137.409 8.43237 139.141 5.53291 142.221C2.63345 145.301 1.00248 149.476 0.997818 153.832V297.443C1.00248 301.799 2.63345 305.975 5.53291 309.054C8.43237 312.134 12.3635 313.866 16.464 313.871H262.658C266.716 313.854 270.606 312.15 273.496 309.125C276.386 306.099 278.047 301.993 278.122 297.684L279.651 186.663C279.681 184.485 279.303 182.323 278.54 180.303C277.776 178.282 276.642 176.442 275.203 174.891C273.764 173.34 272.049 172.109 270.157 171.268C268.266 170.428 266.237 169.995 264.187 169.995H98.2691C95.1396 169.997 92.1218 168.759 89.8066 166.523L57.0725 141.695C54.2251 138.931 50.5065 137.4 46.6493 137.404H16.464Z" fill="#3F3D56"/>
<path d="M283.523 317.727H277.406L275.494 292.668L283.524 292.668L283.523 317.727Z" fill="#FFB8B8"/>
<path d="M285.082 324.025L265.36 324.024V323.759C265.36 322.689 265.559 321.628 265.944 320.639C266.33 319.65 266.896 318.751 267.609 317.994C268.321 317.237 269.168 316.636 270.099 316.226C271.03 315.817 272.029 315.606 273.037 315.606L285.083 315.606L285.082 324.025Z" fill="#2F2E41"/>
<path d="M351.873 317.727H345.756L342.847 292.668L351.874 292.668L351.873 317.727Z" fill="#FFB8B8"/>
<path d="M353.433 324.025L333.711 324.024V323.759C333.711 322.689 333.909 321.628 334.295 320.639C334.681 319.65 335.246 318.751 335.959 317.994C336.672 317.237 337.518 316.636 338.45 316.226C339.381 315.817 340.379 315.606 341.387 315.606L353.433 315.606L353.433 324.025Z" fill="#2F2E41"/>
<path d="M331.761 240.259C332.606 239.208 333.082 237.878 333.108 236.497C333.135 235.115 332.71 233.767 331.907 232.68C331.744 232.472 331.565 232.278 331.372 232.102L335.979 214.035L328.301 216.741L325.103 233.482C324.573 234.515 324.338 235.689 324.428 236.862C324.518 238.034 324.929 239.153 325.611 240.08C325.967 240.58 326.425 240.989 326.95 241.276C327.476 241.563 328.055 241.721 328.646 241.738C329.236 241.756 329.823 241.632 330.362 241.375C330.901 241.119 331.38 240.738 331.761 240.259Z" fill="#FFB8B8"/>
<path d="M331.466 229.145C331.37 229.145 331.274 229.138 331.178 229.122L327.177 228.482C326.866 228.425 326.57 228.296 326.311 228.105C326.051 227.914 325.834 227.665 325.674 227.375C325.328 226.759 325.203 226.03 325.323 225.323L330.315 195.71L326.93 176.684C326.277 173.023 327.961 169.325 330.847 168.082C331.703 167.71 332.635 167.581 333.553 167.705C334.47 167.83 335.342 168.206 336.082 168.795C336.88 169.437 337.543 170.251 338.026 171.183C338.509 172.115 338.802 173.144 338.886 174.205L341.282 198.463L341.254 198.569L333.542 227.317C333.431 227.82 333.168 228.271 332.793 228.602C332.419 228.932 331.952 229.123 331.466 229.145Z" fill="#FF3438"/>
<path d="M330.284 157.598C337.052 157.598 342.538 151.771 342.538 144.582C342.538 137.394 337.052 131.566 330.284 131.566C323.517 131.566 318.031 137.394 318.031 144.582C318.031 151.771 323.517 157.598 330.284 157.598Z" fill="#FFB8B8"/>
<path d="M324.011 205.085C323.705 205.085 323.403 205.025 323.118 204.908L303.75 196.996C303.226 196.783 302.785 196.388 302.498 195.876C302.212 195.363 302.097 194.763 302.173 194.172L302.951 187.976C302.489 185.779 302.532 183.497 303.074 181.321C303.617 179.146 304.644 177.14 306.069 175.475L306.54 174.923L312.27 163.825C312.659 163.073 313.183 162.41 313.814 161.874C314.444 161.339 315.168 160.941 315.944 160.704C316.72 160.467 317.533 160.396 318.335 160.494C319.137 160.592 319.913 160.858 320.618 161.277L330.737 167.283C332.069 168.072 333.074 169.363 333.555 170.9C334.917 175.252 334.816 179.971 333.27 184.252L326.342 203.386C326.158 203.885 325.838 204.314 325.422 204.617C325.007 204.92 324.515 205.083 324.011 205.085Z" fill="#FF3438"/>
<path d="M273.253 311.574L273.226 311.569C272.896 311.501 272.582 311.364 272.303 311.164C272.024 310.964 271.786 310.706 271.603 310.407C271.421 310.107 271.297 309.77 271.239 309.418C271.182 309.066 271.192 308.706 271.27 308.358L286.112 239.446C288.541 228.521 291.898 217.853 296.141 207.572L302.455 192.28L326.016 203.706L329.381 210.241C332.004 217.52 333.352 225.246 333.36 233.04L357.301 307.566C357.418 307.929 357.459 308.316 357.421 308.698C357.383 309.081 357.267 309.45 357.082 309.78C356.896 310.11 356.645 310.393 356.346 310.61C356.047 310.826 355.707 310.971 355.35 311.035L342.245 310.877C342.121 310.901 341.995 310.912 341.87 310.911C341.373 310.911 340.888 310.753 340.476 310.457C340.065 310.161 339.747 309.74 339.564 309.25L312.197 233.901C312.158 233.801 312.091 233.716 312.005 233.657C311.92 233.598 311.819 233.569 311.717 233.572C311.617 233.574 311.521 233.608 311.44 233.671C311.359 233.733 311.299 233.82 311.267 233.92L285.3 309.645C285.1 310.233 284.711 310.728 284.2 311.039C283.689 311.351 283.091 311.46 282.512 311.346L273.253 311.574Z" fill="#2F2E41"/>
<path d="M291.17 226.83C291.861 226.569 292.49 226.15 293.012 225.603C293.534 225.056 293.937 224.394 294.192 223.663C294.448 222.933 294.549 222.152 294.489 221.375C294.43 220.599 294.21 219.846 293.847 219.169L305.583 204.914L296.403 203.584L286.666 217.325C285.636 218.049 284.892 219.149 284.574 220.416C284.257 221.684 284.388 223.031 284.944 224.203C285.499 225.374 286.439 226.289 287.587 226.773C288.735 227.257 290.01 227.277 291.17 226.83Z" fill="#FFB8B8"/>
<path d="M296.702 216.787C296.294 216.787 295.892 216.68 295.531 216.477L291.401 214.137C291.098 213.965 290.832 213.729 290.619 213.443C290.406 213.157 290.251 212.827 290.163 212.474C290.076 212.122 290.058 211.753 290.11 211.393C290.163 211.032 290.285 210.687 290.469 210.379L305.723 184.849L308.368 165.582C308.505 164.586 308.83 163.63 309.325 162.772C309.82 161.914 310.473 161.171 311.246 160.589C312.019 160.007 312.895 159.598 313.821 159.386C314.747 159.173 315.704 159.163 316.634 159.355C317.564 159.548 318.447 159.938 319.231 160.504C320.015 161.069 320.682 161.798 321.193 162.645C321.704 163.493 322.048 164.442 322.203 165.434C322.359 166.427 322.323 167.443 322.098 168.42L316.637 192.167L298.645 215.805C298.411 216.113 298.115 216.361 297.779 216.531C297.443 216.701 297.075 216.789 296.702 216.787Z" fill="#FF3438"/>
<path d="M319.255 133.843C320.672 128.906 328.861 126.703 335.668 128.752C342.474 130.8 347.364 136.171 348.503 141.422C351.023 153.05 337.876 162.487 340.258 174.116C341.834 181.81 350.953 189.085 361.222 190.842C349.905 193.357 336.091 191.146 325.595 185.14C319.063 181.402 313.583 175.761 313.666 170.071C313.716 166.626 315.779 163.58 318.302 160.948C320.825 158.316 323.846 155.977 326.161 153.229C328.477 150.482 330.081 147.193 329.405 143.706C328.73 140.218 325.297 136.582 320.677 135.567L319.255 133.843Z" fill="#2F2E41"/>
</g>
<defs>
<clipPath id="clip0_9_2">
<rect width="388" height="325" fill="white"/>
</clipPath>
</defs>
</svg>
