<svg width="486" height="278" viewBox="0 0 486 278" fill="none" xmlns="http://www.w3.org/2000/svg">
<g clip-path="url(#clip0_9_81)">
<path d="M264.979 31.5193H152.643C150.363 31.5226 148.177 32.5107 146.564 34.267C144.952 36.0233 144.045 38.4045 144.042 40.8883V102.205H161.331C162.595 102.201 163.84 102.549 164.946 103.216C166.053 103.882 166.985 104.845 167.654 106.014L173.646 116.405L179.376 126.333L180.452 128.2L187.007 139.558L187.082 139.688H273.58V40.8882C273.577 38.4044 272.67 36.0233 271.057 34.267C269.445 32.5107 267.259 31.5226 264.979 31.5193Z" fill="#CCCCCC"/>
<path d="M220.451 50.264H164.79C163.314 50.264 161.899 50.9026 160.855 52.0392C159.812 53.1758 159.226 54.7174 159.226 56.3249C159.226 57.9323 159.812 59.4739 160.855 60.6105C161.899 61.7472 163.314 62.3857 164.79 62.3857H220.451C221.927 62.3857 223.342 61.7472 224.385 60.6105C225.429 59.4739 226.015 57.9323 226.015 56.3249C226.015 54.7174 225.429 53.1758 224.385 52.0392C223.342 50.9026 221.927 50.264 220.451 50.264Z" fill="white"/>
<path d="M251.318 80.0265H165.296C163.685 80.0265 162.141 80.7235 161.002 81.9643C159.863 83.2051 159.223 84.8879 159.223 86.6426C159.223 88.3973 159.863 90.0802 161.002 91.321C162.141 92.5617 163.685 93.2588 165.296 93.2588H251.318C252.929 93.2588 254.474 92.5617 255.613 91.321C256.752 90.0802 257.392 88.3973 257.392 86.6426C257.392 84.8879 256.752 83.2051 255.613 81.9643C254.474 80.7235 252.929 80.0265 251.318 80.0265Z" fill="white"/>
<path d="M256.811 106.989C256.322 105.851 255.546 104.889 254.573 104.214C253.6 103.54 252.472 103.181 251.319 103.18H165.296C165.165 103.18 165.04 103.186 164.908 103.193C166.031 103.861 166.976 104.833 167.654 106.014L173.646 116.405H251.319C252.34 116.405 253.345 116.125 254.24 115.589C255.136 115.053 255.892 114.28 256.44 113.341C256.988 112.402 257.309 111.327 257.374 110.216C257.438 109.106 257.245 107.996 256.811 106.989Z" fill="white"/>
<path d="M257.33 132.056C257.132 130.472 256.414 129.019 255.309 127.967C254.204 126.915 252.786 126.334 251.319 126.333H179.376L180.452 128.2L187.007 139.558H251.319C252.582 139.561 253.815 139.13 254.84 138.325C255.628 137.714 256.27 136.906 256.712 135.97C257.155 135.033 257.386 133.995 257.386 132.942C257.386 132.646 257.368 132.35 257.33 132.056Z" fill="white"/>
<path d="M325.995 84.3259L317.238 80.5988L273.58 62.0381L221.345 39.8321C219.219 38.9333 216.853 38.9895 214.765 39.9883C212.676 40.9871 211.037 42.847 210.206 45.1605L208.379 50.264L204.032 62.3856L197.715 80.0265L192.974 93.2587L189.421 103.18L184.68 116.405L181.121 126.333L181.021 126.619L180.452 128.2L187.007 139.558L187.082 139.688H308.494C309.609 139.687 310.709 139.958 311.715 140.481C312.72 141.005 313.605 141.767 314.305 142.713L314.817 141.296L321.085 123.812L330.88 96.468C331.707 94.1519 331.657 91.5731 330.741 89.297C329.826 87.0209 328.119 85.2333 325.995 84.3259Z" fill="black"/>
<path d="M278.258 84.1488L273.58 82.1592L226.406 62.1063C225.03 61.5264 223.5 61.5627 222.149 62.2073C220.798 62.852 219.735 64.0526 219.194 65.5472C218.661 67.0465 218.694 68.7148 219.288 70.1871C219.881 71.6594 220.985 72.8159 222.359 73.4035L237.94 80.0265L257.211 88.2166L273.58 95.1803L274.211 95.446C275.586 96.0273 277.116 95.9908 278.466 95.3443C279.816 94.6978 280.875 93.4943 281.411 91.9979C281.947 90.5015 281.916 88.8345 281.325 87.3629C280.734 85.8913 279.631 84.7354 278.258 84.1488Z" fill="white"/>
<path d="M297.073 124.105L273.58 114.116L256.81 106.988L247.853 103.18L224.523 93.2588L216.942 90.0359C215.528 89.4344 213.958 89.4316 212.542 90.0282C211.127 90.6247 209.967 91.7773 209.292 93.2588C209.218 93.4291 209.143 93.6063 209.08 93.7903C208.79 94.5991 208.649 95.4624 208.665 96.3306C208.681 97.1988 208.855 98.0551 209.175 98.8504C209.495 99.6458 209.955 100.365 210.53 100.966C211.106 101.567 211.784 102.039 212.526 102.355L214.465 103.18L245.564 116.405L273.58 128.316L292.657 136.431C293.358 136.729 294.105 136.882 294.859 136.88C296.275 136.883 297.648 136.346 298.739 135.362C299.831 134.379 300.572 133.01 300.835 131.494C301.098 129.978 300.865 128.409 300.178 127.059C299.491 125.71 298.393 124.665 297.073 124.105Z" fill="white"/>
<path d="M273.58 138.965L272.072 138.325L257.33 132.056L243.863 126.333L220.507 116.405L209.211 111.601C208.468 111.285 207.675 111.131 206.877 111.148C206.079 111.166 205.292 111.354 204.561 111.703C203.83 112.052 203.17 112.555 202.617 113.182C202.065 113.81 201.631 114.549 201.341 115.36C201.052 116.17 200.911 117.034 200.928 117.903C200.945 118.772 201.12 119.629 201.441 120.425C201.762 121.221 202.225 121.94 202.801 122.541C203.378 123.142 204.058 123.613 204.802 123.928L210.456 126.333L238.665 138.325L241.567 139.558L241.868 139.688H275.275L273.58 138.965Z" fill="white"/>
<path d="M216.517 139.558L213.615 138.325L201.486 133.167C200.639 132.805 199.728 132.656 198.821 132.73C197.913 132.805 197.033 133.101 196.245 133.596C195.456 134.091 194.781 134.774 194.267 135.592C193.754 136.411 193.417 137.345 193.28 138.325C193.22 138.733 193.197 139.146 193.211 139.558C193.21 139.601 193.212 139.645 193.218 139.688H216.823L216.517 139.558Z" fill="white"/>
<path d="M250.085 139.792L246.981 138.556H198.439C198.374 138.964 198.35 139.378 198.365 139.792H191.729L191.809 139.921H250.406L250.085 139.792ZM250.085 139.792H191.729L191.809 139.921H250.406L250.085 139.792ZM250.085 139.792H191.729L191.809 139.921H250.406L250.085 139.792ZM250.406 139.921L250.085 139.792H191.729L191.809 139.921H250.406ZM133.326 276.635C131.208 276.631 129.178 275.771 127.681 274.243C126.184 272.715 125.341 270.644 125.338 268.483V110.524C125.34 108.362 126.182 106.289 127.679 104.759C129.177 103.23 131.207 102.369 133.326 102.365H145.776V101H133.326C130.853 101.005 128.482 102.01 126.734 103.795C124.986 105.58 124.003 108 124 110.524V268.483C124.002 270.309 124.518 272.095 125.487 273.63C126.456 275.165 127.837 276.383 129.466 277.14H247.329C247.222 276.976 247.115 276.805 247.008 276.635H133.326ZM328.431 141.533C327.562 140.592 326.514 139.842 325.351 139.331C324.188 138.819 322.934 138.555 321.667 138.556H192.552L185.327 126.827L185.152 126.54L179.025 116.593L172.161 105.451C171.319 104.09 170.155 102.968 168.774 102.19C167.394 101.412 165.844 101.002 164.267 101H133.326C130.853 101.005 128.482 102.01 126.734 103.795C124.986 105.58 124.003 108 124 110.524V268.483C124.002 270.309 124.518 272.095 125.487 273.63C126.456 275.165 127.837 276.383 129.466 277.14C130.676 277.708 131.993 278.002 133.326 278H321.667C323.002 278.002 324.321 277.708 325.534 277.14C327.163 276.383 328.543 275.165 329.512 273.63C330.481 272.095 330.998 270.309 331 268.483V148.08C331.002 145.641 330.081 143.296 328.431 141.533ZM329.662 268.483C329.658 270.645 328.815 272.717 327.316 274.245C325.817 275.773 323.786 276.633 321.667 276.635H133.326C131.208 276.631 129.178 275.771 127.681 274.243C126.184 272.715 125.341 270.644 125.338 268.483V110.524C125.34 108.362 126.182 106.289 127.679 104.759C129.177 103.23 131.207 102.369 133.326 102.365H164.267C165.619 102.362 166.95 102.71 168.134 103.378C169.317 104.046 170.314 105.011 171.03 106.182L177.439 116.593L183.567 126.54L184.718 128.411L191.729 139.792L191.809 139.921L321.667 139.921C323.787 139.923 325.82 140.783 327.318 142.313C328.817 143.843 329.66 145.917 329.662 148.08V268.483ZM250.085 139.792H191.729L191.809 139.921H250.406L250.085 139.792ZM250.085 139.792H191.729L191.809 139.921H250.406L250.085 139.792ZM250.085 139.792H191.729L191.809 139.921H250.406L250.085 139.792ZM250.085 139.792L246.981 138.556H192.552L185.327 126.827L184.718 128.411L191.729 139.792L191.809 139.921H250.406L250.085 139.792Z" fill="#3F3D56"/>
<path d="M98.1557 196.079L94.5729 204.239L63.9762 193.069L69.2634 181.026L98.1557 196.079Z" fill="#FFB8B8"/>
<path d="M89.541 209.71L96.7831 193.216L105.879 197.955L94.6189 223.6L93.9234 223.238C91.6956 222.077 89.9823 220 89.1604 217.463C88.3386 214.926 88.4755 212.137 89.541 209.71Z" fill="#2F2E41"/>
<path d="M105.368 268.949L97.0699 268.644L96.7202 233.455L106.448 234.08L105.368 268.949Z" fill="#FFB8B8"/>
<path d="M90.4516 265.815L107.226 266.431L106.886 277.409L80.8054 276.45L80.8314 275.61C80.9147 272.922 81.9751 270.379 83.7792 268.542C85.5834 266.705 87.9835 265.724 90.4516 265.815Z" fill="#2F2E41"/>
<path d="M118.732 121.679C118.732 121.679 93.334 114.67 81.8204 124.999L75.3864 145.288L49.65 185.129L86.9 209.476L93.6727 191.032L77.4182 182.178L97.0591 163.733L93.6727 261.122L106.541 263.335C106.541 263.335 134.986 143.075 118.732 121.679Z" fill="#2F2E41"/>
<path d="M80.2 128L80.5095 127.401C83.7726 121.081 83.2439 110.79 82.2258 103.27C81.3731 96.9717 81.3987 85.8717 81.5704 77.6688C81.6128 74.9 82.5192 72.2295 84.1406 70.0968C85.7619 67.964 88.0015 66.4961 90.4906 65.9347C98.2169 64.1832 107.702 63.8121 112.669 63.7466C114.018 63.7407 115.316 64.3112 116.283 65.3357C117.251 66.3603 117.812 67.7571 117.845 69.2267C117.996 78.06 117.949 94.1683 115.937 102.811C112.95 115.638 117.62 124.354 117.668 124.441L117.95 124.954L80.2 128Z" fill="white"/>
<path d="M67.1354 163.375C67.9622 162.944 68.6921 162.321 69.2737 161.549C69.8553 160.777 70.2745 159.876 70.5017 158.908C70.7289 157.941 70.7587 156.931 70.5889 155.949C70.4191 154.968 70.0538 154.039 69.5188 153.228L83.8522 85.8962H73.0159L60.3659 151.901C59.175 152.971 58.3855 154.479 58.1471 156.14C57.9087 157.801 58.2379 159.5 59.0723 160.914C59.9067 162.328 61.1884 163.36 62.6745 163.814C64.1606 164.267 65.7478 164.111 67.1354 163.375Z" fill="#FFB8B8"/>
<path d="M154.289 97.0972L130.369 72.4482L123.904 82.3078L140.066 97.8015L118.87 116.138C118.717 116.126 118.564 116.112 118.408 116.112C117.104 116.111 115.827 116.519 114.73 117.287C113.633 118.056 112.763 119.152 112.223 120.446C111.683 121.739 111.496 123.175 111.686 124.581C111.875 125.986 112.432 127.303 113.291 128.373C114.149 129.443 115.272 130.221 116.525 130.613C117.779 131.006 119.11 130.997 120.359 130.588C121.608 130.178 122.722 129.385 123.568 128.304C124.414 127.223 124.956 125.899 125.13 124.49L125.197 124.563L154.289 97.0972Z" fill="#FFB8B8"/>
<path d="M88.9691 66.8002C88.9691 66.8002 74.0319 64.1313 72.6773 76.6737C71.3228 89.2162 70.6455 89.2162 70.6455 89.2162C70.6455 89.2162 81.4819 87.0028 84.191 89.954C86.9 92.9052 88.9691 66.8002 88.9691 66.8002Z" fill="white"/>
<path d="M111.282 64.8691C111.282 64.8691 123.473 62.6557 128.891 68.558C134.309 74.4604 137.018 75.936 137.018 75.936C137.018 75.936 124.827 83.3139 129.568 89.954C129.568 89.954 116.7 83.3139 114.668 85.5273C112.636 87.7406 111.282 64.8691 111.282 64.8691Z" fill="white"/>
<path d="M100.589 22.0345C96.7438 18.689 95.7334 12.2321 97.9645 7.45362C100.196 2.67515 105.24 -0.203739 110.157 0.0112556C115.075 0.22625 119.708 3.30168 122.557 7.6732C126.559 13.814 127.399 22.3489 132.72 27.1564C137.526 31.4987 144.411 31.3743 150.647 31.0288C152.749 30.9124 154.919 30.7774 156.805 29.76C158.691 28.7426 160.233 26.5968 159.989 24.3193C161.556 27.0209 160.647 30.8087 158.545 33.0378C156.444 35.2669 153.451 36.2007 150.537 36.5726C145.397 37.1611 140.205 36.281 135.473 34.0189C130.74 31.7568 126.63 28.1909 123.547 23.6721C121.377 20.4115 119.703 16.6145 116.725 14.2272C113.748 11.8399 108.784 11.6737 106.956 15.1743C106.052 16.9057 106.141 19.0774 105.31 20.8515C104.478 22.6255 101.779 23.5821 100.978 21.7913" fill="#2F2E41"/>
<path d="M100.001 57.6141C110.365 57.6141 118.766 48.4622 118.766 37.1728C118.766 25.8834 110.365 16.7316 100.001 16.7316C89.6381 16.7316 81.2369 25.8834 81.2369 37.1728C81.2369 48.4622 89.6381 57.6141 100.001 57.6141Z" fill="#2F2E41"/>
<path d="M99.8881 59.2143C108.373 59.2143 115.251 51.7216 115.251 42.479C115.251 33.2364 108.373 25.7437 99.8881 25.7437C91.4037 25.7437 84.5256 33.2364 84.5256 42.479C84.5256 51.7216 91.4037 59.2143 99.8881 59.2143Z" fill="#FFB8B8"/>
<path d="M85.8804 30.1879C87.9682 30.6854 87.285 34.5008 88.9348 35.9807C90.4231 37.3157 92.5663 35.9428 94.4395 35.4458C96.8043 34.8183 99.2795 35.7375 101.463 36.9094C103.646 38.0812 105.751 39.5355 108.133 40.0815C110.515 40.6274 113.339 40.0121 114.674 37.7952C115.951 35.6755 115.481 32.817 114.482 30.5271C113.24 27.68 111.291 25.2687 108.856 23.5662C106.421 21.8638 103.596 20.9383 100.703 20.8946C97.8096 20.8509 94.9629 21.6908 92.4852 23.3191C90.0076 24.9474 87.998 27.299 86.6842 30.1075" fill="#2F2E41"/>
</g>
<defs>
<clipPath id="clip0_9_81">
<rect width="486" height="278" fill="white"/>
</clipPath>
</defs>
</svg>
