<svg width="277" height="284" viewBox="0 0 277 284" fill="none" xmlns="http://www.w3.org/2000/svg">
<g clip-path="url(#clip0_9_56)">
<path d="M141.86 0.619006L132.847 3.27421L21.8043 35.9869L12.7912 38.6421C8.41632 39.9369 4.66971 43.1613 2.37331 47.6078C0.0769163 52.0544 -0.581732 57.3599 0.541868 62.3605L39.6246 235.492C40.7581 240.489 43.5806 244.769 47.4729 247.393C51.3653 250.016 56.0096 250.768 60.387 249.485L60.4103 249.478L189.433 211.469L189.456 211.462C193.831 210.167 197.578 206.943 199.874 202.496C202.171 198.049 202.829 192.744 201.706 187.743L162.623 14.6123C161.489 9.61462 158.667 5.33459 154.775 2.71124C150.882 0.0878847 146.238 -0.664552 141.86 0.619006Z" fill="#F2F2F2"/>
<path d="M143.086 6.0473L132.411 9.19221L24.6919 40.9256L14.0167 44.0705C10.9012 44.9925 8.23316 47.2886 6.59783 50.4551C4.96251 53.6216 4.49346 57.3998 5.2936 60.9609L44.3764 234.092C45.1835 237.651 47.1935 240.699 49.9653 242.567C52.7372 244.435 56.0445 244.971 59.1618 244.057L59.185 244.05L188.208 206.041L188.231 206.034C191.347 205.112 194.015 202.815 195.65 199.649C197.285 196.482 197.754 192.704 196.954 189.143L157.871 16.0123C157.064 12.4533 155.054 9.40544 152.282 7.53729C149.511 5.66914 146.203 5.13329 143.086 6.0473Z" fill="white"/>
<path d="M135.025 62.1116L69.7558 81.3397C69.0268 81.5544 68.253 81.4296 67.6046 80.9926C66.9562 80.5556 66.4863 79.8422 66.2983 79.0094C66.1103 78.1766 66.2196 77.2927 66.6022 76.5519C66.9847 75.8112 67.6092 75.2744 68.3381 75.0597L133.608 55.8316C134.336 55.6177 135.11 55.7431 135.757 56.1802C136.405 56.6173 136.875 57.3303 137.063 58.1626C137.251 58.9949 137.142 59.8784 136.759 60.6189C136.377 61.3593 135.754 61.8963 135.025 62.1116Z" fill="#F2F2F2"/>
<path d="M148.756 69.3689L72.1481 91.9372C71.4191 92.1519 70.6453 92.0271 69.9969 91.5901C69.3485 91.153 68.8786 90.4397 68.6906 89.6069C68.5026 88.7741 68.6119 87.8901 68.9945 87.1494C69.377 86.4087 70.0015 85.8719 70.7305 85.6572L147.338 63.0889C148.067 62.8742 148.841 62.999 149.489 63.4361C150.138 63.8731 150.608 64.5864 150.796 65.4192C150.984 66.252 150.874 67.136 150.492 67.8767C150.109 68.6174 149.485 69.1542 148.756 69.3689Z" fill="#F2F2F2"/>
<path d="M145.746 109.604L80.4769 128.832C80.1159 128.939 79.7401 128.963 79.371 128.903C79.0019 128.844 78.6467 128.701 78.3257 128.485C78.0046 128.269 77.724 127.982 77.4999 127.642C77.2757 127.302 77.1125 126.914 77.0194 126.502C76.9263 126.09 76.9052 125.66 76.9573 125.239C77.0095 124.817 77.1338 124.411 77.3232 124.044C77.5126 123.678 77.7634 123.357 78.0613 123.101C78.3592 122.845 78.6983 122.659 79.0592 122.552L144.329 103.324C144.69 103.218 145.065 103.194 145.435 103.253C145.804 103.313 146.159 103.455 146.48 103.671C146.801 103.888 147.082 104.174 147.306 104.514C147.53 104.855 147.693 105.242 147.786 105.654C147.879 106.067 147.9 106.496 147.848 106.918C147.796 107.339 147.672 107.745 147.482 108.112C147.293 108.479 147.042 108.799 146.744 109.055C146.446 109.311 146.107 109.498 145.746 109.604Z" fill="#F2F2F2"/>
<path d="M159.477 116.862L82.8691 139.43C82.5081 139.536 82.1324 139.56 81.7632 139.501C81.3941 139.441 81.0389 139.299 80.7179 139.083C80.3968 138.866 80.1162 138.58 79.8921 138.239C79.6679 137.899 79.5047 137.512 79.4116 137.099C79.3185 136.687 79.2974 136.258 79.3496 135.836C79.4017 135.415 79.526 135.009 79.7154 134.642C79.9048 134.275 80.1556 133.955 80.4535 133.699C80.7514 133.443 81.0905 133.256 81.4514 133.15L158.059 110.581C158.788 110.367 159.562 110.492 160.21 110.929C160.859 111.366 161.329 112.079 161.517 112.912C161.705 113.745 161.595 114.629 161.213 115.369C160.83 116.11 160.206 116.647 159.477 116.862Z" fill="#F2F2F2"/>
<path d="M156.467 157.097L91.1979 176.325C90.4691 176.539 89.6957 176.414 89.0477 175.977C88.3997 175.539 87.9302 174.826 87.7423 173.994C87.5544 173.162 87.6635 172.278 88.0456 171.537C88.4278 170.797 89.0517 170.26 89.7802 170.045L155.05 150.817C155.779 150.602 156.552 150.727 157.201 151.164C157.849 151.601 158.319 152.314 158.507 153.147C158.695 153.98 158.586 154.864 158.203 155.604C157.821 156.345 157.196 156.882 156.467 157.097Z" fill="#F2F2F2"/>
<path d="M170.198 164.354L93.5901 186.922C93.2291 187.029 92.8531 187.053 92.4838 186.994C92.1144 186.935 91.7589 186.793 91.4376 186.577C91.1163 186.36 90.8354 186.074 90.6111 185.733C90.3868 185.393 90.2234 185.005 90.1302 184.593C90.0371 184.18 90.016 183.751 90.0683 183.329C90.1205 182.907 90.245 182.501 90.4347 182.134C90.6244 181.767 90.8755 181.447 91.1737 181.191C91.4718 180.935 91.8112 180.748 92.1725 180.642L168.78 158.074C169.509 157.859 170.283 157.984 170.931 158.421C171.58 158.858 172.05 159.572 172.238 160.404C172.426 161.237 172.316 162.121 171.934 162.862C171.551 163.603 170.927 164.139 170.198 164.354Z" fill="#F2F2F2"/>
<path d="M58.6134 101.055L35.5152 107.86C35.1656 107.962 34.7948 107.902 34.484 107.693C34.1732 107.483 33.9478 107.142 33.8573 106.742L28.5551 83.2546C28.4654 82.8553 28.518 82.4316 28.7014 82.0766C28.8847 81.7215 29.1839 81.464 29.5332 81.3607L52.6315 74.556C52.981 74.4535 53.3519 74.5136 53.6627 74.7231C53.9735 74.9326 54.1988 75.2743 54.2893 75.6734L59.5915 99.1613C59.6813 99.5606 59.6287 99.9842 59.4453 100.339C59.2619 100.694 58.9628 100.952 58.6134 101.055Z" fill="#E6E6E6"/>
<path d="M69.3344 148.548L46.2361 155.352C45.8866 155.455 45.5157 155.395 45.2049 155.185C44.8941 154.976 44.6687 154.634 44.5782 154.235L39.2761 130.747C39.1863 130.348 39.2389 129.924 39.4223 129.569C39.6057 129.214 39.9048 128.957 40.2542 128.853L63.3524 122.049C63.702 121.946 64.0728 122.006 64.3836 122.216C64.6944 122.425 64.9198 122.767 65.0103 123.166L70.3125 146.654C70.4022 147.053 70.3496 147.477 70.1662 147.832C69.9829 148.187 69.6837 148.444 69.3344 148.548Z" fill="#E6E6E6"/>
<path d="M80.0554 196.04L56.9572 202.845C56.6077 202.947 56.2368 202.887 55.926 202.678C55.6152 202.468 55.3898 202.127 55.2993 201.728L49.9971 178.24C49.9074 177.84 49.96 177.417 50.1434 177.062C50.3267 176.707 50.6259 176.449 50.9752 176.346L74.0735 169.541C74.423 169.439 74.7939 169.499 75.1047 169.708C75.4155 169.918 75.6409 170.259 75.7314 170.658L81.0335 194.146C81.1233 194.546 81.0707 194.969 80.8873 195.324C80.7039 195.679 80.4048 195.937 80.0554 196.04Z" fill="#E6E6E6"/>
<path d="M231.88 44.5057H98.5881C94.0688 44.5115 89.7361 46.5649 86.5405 50.2155C83.3448 53.8661 81.5473 58.8157 81.5422 63.9784V242.774C81.5473 247.936 83.3448 252.886 86.5405 256.536C89.7361 260.187 94.0688 262.24 98.5881 262.246H231.88C236.399 262.24 240.732 260.187 243.928 256.536C247.123 252.886 248.921 247.936 248.926 242.774V63.9784C248.921 58.8157 247.123 53.8661 243.928 50.2155C240.732 46.5649 236.399 44.5115 231.88 44.5057Z" fill="#E6E6E6"/>
<path d="M231.88 50.1115H98.5881C95.3698 50.1156 92.2844 51.5779 90.0087 54.1775C87.733 56.7772 86.453 60.3019 86.4493 63.9784V242.774C86.453 246.45 87.733 249.975 90.0087 252.574C92.2844 255.174 95.3698 256.636 98.5881 256.64H231.88C235.098 256.636 238.184 255.174 240.46 252.574C242.735 249.975 244.015 246.45 244.019 242.774V63.9784C244.015 60.302 242.735 56.7773 240.46 54.1776C238.184 51.5779 235.098 50.1156 231.88 50.1115Z" fill="white"/>
<path d="M246 284C263.121 284 277 270.121 277 253C277 235.879 263.121 222 246 222C228.879 222 215 235.879 215 253C215 270.121 228.879 284 246 284Z" fill="#FA7275"/>
<path d="M259.25 248.929H249.25V238.071C249.25 236.992 248.855 235.956 248.152 235.192C247.448 234.429 246.495 234 245.5 234C244.505 234 243.552 234.429 242.848 235.192C242.145 235.956 241.75 236.992 241.75 238.071V248.929H231.75C230.755 248.929 229.802 249.358 229.098 250.121C228.395 250.885 228 251.92 228 253C228 254.08 228.395 255.115 229.098 255.879C229.802 256.642 230.755 257.071 231.75 257.071H241.75V267.929C241.75 269.008 242.145 270.044 242.848 270.808C243.552 271.571 244.505 272 245.5 272C246.495 272 247.448 271.571 248.152 270.808C248.855 270.044 249.25 269.008 249.25 267.929V257.071H259.25C260.245 257.071 261.198 256.642 261.902 255.879C262.605 255.115 263 254.08 263 253C263 251.92 262.605 250.885 261.902 250.121C261.198 249.358 260.245 248.929 259.25 248.929Z" fill="white"/>
<path d="M211.82 148.359H144.415C144.042 148.359 143.672 148.276 143.328 148.113C142.983 147.95 142.669 147.712 142.406 147.41C142.142 147.109 141.932 146.752 141.789 146.358C141.647 145.964 141.573 145.542 141.573 145.116C141.573 144.69 141.647 144.268 141.789 143.874C141.932 143.481 142.142 143.123 142.406 142.822C142.669 142.521 142.983 142.282 143.328 142.119C143.672 141.957 144.042 141.873 144.415 141.873H211.82C212.572 141.874 213.293 142.217 213.825 142.825C214.356 143.433 214.655 144.257 214.655 145.116C214.655 145.976 214.356 146.8 213.825 147.408C213.293 148.016 212.572 148.358 211.82 148.359Z" fill="#E6E6E6"/>
<path d="M223.529 159.303H144.415C144.042 159.304 143.672 159.22 143.328 159.057C142.983 158.895 142.669 158.656 142.406 158.355C142.142 158.053 141.932 157.696 141.789 157.302C141.647 156.909 141.573 156.487 141.573 156.06C141.573 155.634 141.647 155.212 141.789 154.819C141.932 154.425 142.142 154.067 142.406 153.766C142.669 153.465 142.983 153.226 143.328 153.063C143.672 152.901 144.042 152.817 144.415 152.818H223.529C224.282 152.818 225.004 153.159 225.536 153.767C226.068 154.376 226.367 155.2 226.367 156.06C226.367 156.92 226.068 157.745 225.536 158.353C225.004 158.962 224.282 159.303 223.529 159.303Z" fill="#E6E6E6"/>
<path d="M211.82 197.405H144.415C144.042 197.406 143.672 197.322 143.328 197.159C142.983 196.997 142.669 196.758 142.406 196.457C142.142 196.156 141.932 195.798 141.789 195.404C141.647 195.011 141.573 194.589 141.573 194.163C141.573 193.736 141.647 193.314 141.789 192.921C141.932 192.527 142.142 192.169 142.406 191.868C142.669 191.567 142.983 191.328 143.328 191.166C143.672 191.003 144.042 190.919 144.415 190.92H211.82C212.572 190.92 213.294 191.261 213.827 191.87C214.359 192.478 214.658 193.303 214.658 194.163C214.658 195.023 214.359 195.847 213.827 196.455C213.294 197.064 212.572 197.405 211.82 197.405Z" fill="#E6E6E6"/>
<path d="M223.529 208.349H144.415C144.042 208.35 143.672 208.266 143.328 208.104C142.983 207.941 142.669 207.702 142.406 207.401C142.142 207.1 141.932 206.742 141.789 206.349C141.647 205.955 141.573 205.533 141.573 205.107C141.573 204.681 141.647 204.259 141.789 203.865C141.932 203.471 142.142 203.114 142.406 202.813C142.669 202.511 142.983 202.273 143.328 202.11C143.672 201.947 144.042 201.864 144.415 201.864H223.529C223.902 201.864 224.271 201.947 224.616 202.11C224.961 202.273 225.274 202.511 225.538 202.813C225.802 203.114 226.011 203.471 226.154 203.865C226.297 204.259 226.371 204.681 226.371 205.107C226.371 205.533 226.297 205.955 226.154 206.349C226.011 206.742 225.802 207.1 225.538 207.401C225.274 207.702 224.961 207.941 224.616 208.104C224.271 208.266 223.902 208.35 223.529 208.349Z" fill="#E6E6E6"/>
<path d="M129.316 164.271H105.462C105.101 164.271 104.755 164.107 104.5 163.815C104.245 163.524 104.101 163.129 104.101 162.716V138.46C104.101 138.048 104.245 137.653 104.5 137.361C104.755 137.07 105.101 136.906 105.462 136.905H129.316C129.677 136.906 130.023 137.07 130.278 137.361C130.533 137.653 130.676 138.048 130.677 138.46V162.716C130.676 163.129 130.533 163.524 130.278 163.815C130.023 164.107 129.677 164.271 129.316 164.271Z" fill="#E6E6E6"/>
<path d="M129.316 213.318H105.462C105.101 213.317 104.755 213.153 104.5 212.862C104.245 212.57 104.101 212.175 104.101 211.763V187.506C104.101 187.094 104.245 186.699 104.5 186.407C104.755 186.116 105.101 185.952 105.462 185.952H129.316C129.677 185.952 130.023 186.116 130.278 186.407C130.533 186.699 130.676 187.094 130.677 187.506V211.763C130.676 212.175 130.533 212.57 130.278 212.862C130.023 213.153 129.677 213.317 129.316 213.318Z" fill="#E6E6E6"/>
<path d="M211.894 93.7607H162.2C161.447 93.7607 160.725 93.4191 160.192 92.811C159.66 92.2028 159.361 91.378 159.361 90.518C159.361 89.658 159.66 88.8332 160.192 88.225C160.725 87.6169 161.447 87.2753 162.2 87.2753H211.894C212.647 87.2753 213.369 87.6169 213.902 88.225C214.434 88.8332 214.733 89.658 214.733 90.518C214.733 91.378 214.434 92.2028 213.902 92.811C213.369 93.4191 212.647 93.7607 211.894 93.7607Z" fill="#CCCCCC"/>
<path d="M223.604 104.705H162.2C161.827 104.705 161.458 104.621 161.113 104.458C160.769 104.295 160.456 104.056 160.192 103.755C159.929 103.454 159.72 103.097 159.577 102.703C159.434 102.31 159.361 101.888 159.361 101.462C159.361 101.036 159.434 100.615 159.577 100.221C159.72 99.8278 159.929 99.4704 160.192 99.1692C160.456 98.8681 160.769 98.6293 161.113 98.4663C161.458 98.3033 161.827 98.2195 162.2 98.2195H223.604C224.356 98.2195 225.078 98.5611 225.611 99.1692C226.143 99.7774 226.442 100.602 226.442 101.462C226.442 102.322 226.143 103.147 225.611 103.755C225.078 104.363 224.356 104.705 223.604 104.705Z" fill="#CCCCCC"/>
<path d="M151.201 117.968H105.387C105.026 117.968 104.68 117.804 104.425 117.512C104.17 117.221 104.026 116.825 104.026 116.413V75.567C104.026 75.1548 104.17 74.7596 104.425 74.4681C104.68 74.1766 105.026 74.0126 105.387 74.0121H151.201C151.562 74.0126 151.908 74.1766 152.163 74.4681C152.418 74.7596 152.562 75.1548 152.562 75.567V116.413C152.562 116.825 152.418 117.221 152.163 117.512C151.908 117.804 151.562 117.968 151.201 117.968Z" fill="#FA7275"/>
</g>
<defs>
<clipPath id="clip0_9_56">
<rect width="277" height="284" fill="white"/>
</clipPath>
</defs>
</svg>
