<svg width="261" height="82" viewBox="0 0 261 82" fill="none" xmlns="http://www.w3.org/2000/svg">
<path d="M112.437 33.3565V51.6904C112.437 54.2347 111.702 56.2178 110.23 57.6396C108.758 59.0365 106.788 59.7349 104.318 59.7349C101.824 59.7349 99.8032 59.0115 98.2567 57.5648C96.7351 56.118 95.9743 54.0976 95.9743 51.5034H101.213C101.238 52.6259 101.499 53.4989 101.998 54.1225C102.522 54.7461 103.27 55.0579 104.243 55.0579C105.191 55.0579 105.915 54.7586 106.413 54.1599C106.912 53.5613 107.162 52.7381 107.162 51.6904V33.3565H112.437ZM137.817 48.6597C137.817 49.4081 137.767 50.0816 137.668 50.6802H122.514C122.639 52.1769 123.163 53.3492 124.086 54.1973C125.008 55.0454 126.143 55.4695 127.49 55.4695C129.436 55.4695 130.82 54.6339 131.644 52.9626H137.293C136.695 54.9581 135.547 56.6044 133.851 57.9015C132.155 59.1737 130.072 59.8098 127.603 59.8098C125.607 59.8098 123.811 59.3732 122.215 58.5002C120.643 57.6022 119.409 56.3425 118.511 54.7212C117.637 53.0998 117.201 51.229 117.201 49.1087C117.201 46.9635 117.637 45.0803 118.511 43.4589C119.384 41.8375 120.606 40.5903 122.177 39.7173C123.749 38.8442 125.557 38.4077 127.603 38.4077C129.573 38.4077 131.332 38.8318 132.878 39.6799C134.45 40.528 135.66 41.7378 136.508 43.3092C137.381 44.8558 137.817 46.6393 137.817 48.6597ZM132.392 47.1631C132.367 45.8161 131.881 44.7435 130.933 43.9453C129.985 43.1221 128.825 42.7106 127.453 42.7106C126.156 42.7106 125.058 43.1097 124.16 43.9079C123.287 44.6812 122.751 45.7662 122.551 47.1631H132.392ZM146.879 31.7851V59.473H141.641V31.7851H146.879ZM157.293 31.7851V59.473H152.054V31.7851H157.293ZM182.299 38.7445L169.465 69.276H163.89L168.38 58.9492L160.073 38.7445H165.948L171.298 53.2245L176.724 38.7445H182.299ZM194.626 43.0473H190.997V59.473H185.684V43.0473H183.326V38.7445H185.684V37.6968C185.684 35.1525 186.407 33.2817 187.854 32.0844C189.301 30.8871 191.483 30.3258 194.402 30.4007V34.8158C193.129 34.7908 192.244 35.0028 191.745 35.4518C191.246 35.9008 190.997 36.7115 190.997 37.8839V38.7445H194.626V43.0473ZM200.677 36.275C199.754 36.275 198.981 35.9881 198.357 35.4144C197.759 34.8158 197.459 34.0799 197.459 33.2069C197.459 32.3338 197.759 31.6104 198.357 31.0367C198.981 30.4381 199.754 30.1387 200.677 30.1387C201.6 30.1387 202.361 30.4381 202.96 31.0367C203.583 31.6104 203.895 32.3338 203.895 33.2069C203.895 34.0799 203.583 34.8158 202.96 35.4144C202.361 35.9881 201.6 36.275 200.677 36.275ZM203.259 38.7445V59.473H198.021V38.7445H203.259ZM213.673 31.7851V59.473H208.434V31.7851H213.673ZM238.117 48.6597C238.117 49.4081 238.067 50.0816 237.968 50.6802H222.814C222.939 52.1769 223.463 53.3492 224.386 54.1973C225.309 55.0454 226.444 55.4695 227.791 55.4695C229.736 55.4695 231.121 54.6339 231.944 52.9626H237.594C236.995 54.9581 235.847 56.6044 234.151 57.9015C232.455 59.1737 230.372 59.8098 227.903 59.8098C225.907 59.8098 224.111 59.3732 222.515 58.5002C220.943 57.6022 219.709 56.3425 218.811 54.7212C217.938 53.0998 217.501 51.229 217.501 49.1087C217.501 46.9635 217.938 45.0803 218.811 43.4589C219.684 41.8375 220.906 40.5903 222.477 39.7173C224.049 38.8442 225.857 38.4077 227.903 38.4077C229.873 38.4077 231.632 38.8318 233.178 39.6799C234.75 40.528 235.96 41.7378 236.808 43.3092C237.681 44.8558 238.117 46.6393 238.117 48.6597ZM232.692 47.1631C232.667 45.8161 232.181 44.7435 231.233 43.9453C230.285 43.1221 229.125 42.7106 227.753 42.7106C226.456 42.7106 225.358 43.1097 224.46 43.9079C223.587 44.6812 223.051 45.7662 222.852 47.1631H232.692ZM249.873 59.8098C248.177 59.8098 246.655 59.5104 245.308 58.9118C243.961 58.2882 242.889 57.4525 242.091 56.4049C241.317 55.3572 240.893 54.1973 240.818 52.9252H246.094C246.194 53.7234 246.58 54.3844 247.254 54.9082C247.952 55.4321 248.813 55.694 249.836 55.694C250.833 55.694 251.607 55.4944 252.155 55.0953C252.729 54.6962 253.016 54.1849 253.016 53.5613C253.016 52.8878 252.667 52.3889 251.968 52.0646C251.295 51.7154 250.21 51.3412 248.713 50.9421C247.167 50.568 245.894 50.1813 244.897 49.7822C243.924 49.3831 243.076 48.772 242.352 47.9488C241.654 47.1257 241.305 46.0157 241.305 44.6188C241.305 43.4714 241.629 42.4237 242.278 41.4758C242.951 40.528 243.899 39.7796 245.121 39.2309C246.368 38.6821 247.828 38.4077 249.499 38.4077C251.968 38.4077 253.939 39.0313 255.411 40.2785C256.882 41.5008 257.693 43.1596 257.843 45.2549H252.829C252.754 44.4317 252.405 43.7832 251.781 43.3092C251.183 42.8103 250.372 42.5609 249.349 42.5609C248.401 42.5609 247.666 42.7355 247.142 43.0847C246.643 43.434 246.393 43.9204 246.393 44.544C246.393 45.2424 246.743 45.7787 247.441 46.1529C248.139 46.5021 249.225 46.8638 250.696 47.2379C252.193 47.6121 253.428 47.9987 254.4 48.3978C255.373 48.7969 256.209 49.4205 256.907 50.2686C257.631 51.0918 258.005 52.1893 258.03 53.5613C258.03 54.7586 257.693 55.8312 257.02 56.779C256.371 57.7269 255.423 58.4752 254.176 59.024C252.954 59.5478 251.519 59.8098 249.873 59.8098Z" fill="#FA7275"/>
<rect opacity="0.2" width="74.8323" height="74.8323" rx="30" fill="#FA7275"/>
<rect x="32.7391" y="31.1801" width="49.8882" height="49.8882" rx="20" fill="#FA7275"/>
</svg>
