<<<<<<< HEAD
<svg width="224" height="82" viewBox="0 0 224 82" fill="none" xmlns="http://www.w3.org/2000/svg">
<path d="M112.71 53.7346C110.964 53.7346 109.393 53.4352 107.996 52.8366C106.599 52.213 105.502 51.3399 104.703 50.2175C103.905 49.095 103.506 47.7854 103.506 46.2888H108.071C108.171 47.4112 108.607 48.3342 109.38 49.0576C110.179 49.7809 111.289 50.1426 112.71 50.1426C114.182 50.1426 115.33 49.7934 116.153 49.095C116.976 48.3716 117.387 47.4487 117.387 46.3262C117.387 45.4531 117.126 44.7422 116.602 44.1935C116.103 43.6447 115.467 43.2206 114.694 42.9213C113.945 42.622 112.898 42.2977 111.551 41.9485C109.854 41.4995 108.47 41.0505 107.397 40.6015C106.35 40.1276 105.452 39.4042 104.703 38.4314C103.955 37.4585 103.581 36.1615 103.581 34.5401C103.581 33.0434 103.955 31.7339 104.703 30.6114C105.452 29.4889 106.499 28.6283 107.846 28.0297C109.193 27.431 110.752 27.1317 112.523 27.1317C115.043 27.1317 117.101 27.7678 118.697 29.0399C120.318 30.2871 121.216 32.0083 121.391 34.2033H116.677C116.602 33.2555 116.153 32.4448 115.33 31.7713C114.506 31.0978 113.421 30.7611 112.074 30.7611C110.852 30.7611 109.854 31.0729 109.081 31.6965C108.308 32.3201 107.921 33.218 107.921 34.3904C107.921 35.1886 108.158 35.8496 108.632 36.3735C109.131 36.8724 109.755 37.2715 110.503 37.5708C111.251 37.8701 112.274 38.1944 113.571 38.5436C115.292 39.0175 116.689 39.4915 117.762 39.9654C118.859 40.4394 119.782 41.1752 120.53 42.173C121.304 43.1458 121.69 44.4554 121.69 46.1017C121.69 47.4237 121.329 48.6709 120.605 49.8433C119.907 51.0157 118.872 51.9635 117.5 52.6869C116.153 53.3854 114.556 53.7346 112.71 53.7346ZM131.7 36.3361V47.748C131.7 48.5213 131.874 49.0825 132.224 49.4317C132.598 49.756 133.221 49.9181 134.094 49.9181H136.713V53.4727H133.346C131.425 53.4727 129.954 53.0237 128.931 52.1257C127.908 51.2277 127.397 49.7685 127.397 47.748V36.3361H124.965V32.8564H127.397V27.7303H131.7V32.8564H136.713V36.3361H131.7ZM149.587 53.8094C147.642 53.8094 145.883 53.3729 144.312 52.4998C142.74 51.6018 141.505 50.3546 140.607 48.7582C139.709 47.1369 139.26 45.266 139.26 43.1458C139.26 41.0505 139.722 39.1922 140.645 37.5708C141.568 35.9494 142.827 34.7022 144.424 33.8292C146.02 32.9561 147.804 32.5196 149.774 32.5196C151.745 32.5196 153.528 32.9561 155.125 33.8292C156.721 34.7022 157.981 35.9494 158.904 37.5708C159.827 39.1922 160.288 41.0505 160.288 43.1458C160.288 45.2411 159.814 47.0994 158.866 48.7208C157.919 50.3422 156.622 51.6018 154.975 52.4998C153.354 53.3729 151.558 53.8094 149.587 53.8094ZM149.587 50.1052C150.685 50.1052 151.708 49.8433 152.655 49.3195C153.628 48.7956 154.414 48.0099 155.013 46.9622C155.611 45.9146 155.911 44.6424 155.911 43.1458C155.911 41.6492 155.624 40.3895 155.05 39.3668C154.476 38.3191 153.716 37.5334 152.768 37.0095C151.82 36.4857 150.797 36.2238 149.7 36.2238C148.602 36.2238 147.579 36.4857 146.631 37.0095C145.708 37.5334 144.973 38.3191 144.424 39.3668C143.875 40.3895 143.601 41.6492 143.601 43.1458C143.601 45.3658 144.162 47.087 145.284 48.3092C146.432 49.5065 147.866 50.1052 149.587 50.1052ZM168.77 35.8496C169.394 34.802 170.217 33.9913 171.24 33.4176C172.287 32.8189 173.522 32.5196 174.944 32.5196V36.9347H173.859C172.188 36.9347 170.916 37.3588 170.043 38.2069C169.194 39.055 168.77 40.5267 168.77 42.622V53.4727H164.505V32.8564H168.77V35.8496ZM197.76 42.6594C197.76 43.4327 197.71 44.1311 197.61 44.7547H181.858C181.983 46.401 182.594 47.723 183.692 48.7208C184.789 49.7186 186.136 50.2175 187.732 50.2175C190.027 50.2175 191.649 49.2571 192.597 47.3364H197.199C196.575 49.2322 195.44 50.7912 193.794 52.0134C192.173 53.2107 190.152 53.8094 187.732 53.8094C185.762 53.8094 183.991 53.3729 182.419 52.4998C180.873 51.6018 179.651 50.3546 178.753 48.7582C177.88 47.1369 177.443 45.266 177.443 43.1458C177.443 41.0255 177.867 39.1672 178.715 37.5708C179.588 35.9494 180.798 34.7022 182.345 33.8292C183.916 32.9561 185.712 32.5196 187.732 32.5196C189.678 32.5196 191.412 32.9437 192.933 33.7918C194.455 34.6399 195.64 35.8372 196.488 37.3837C197.336 38.9053 197.76 40.6639 197.76 42.6594ZM193.307 41.3124C193.283 39.7409 192.721 38.4813 191.624 37.5334C190.526 36.5855 189.167 36.1116 187.545 36.1116C186.074 36.1116 184.814 36.5855 183.766 37.5334C182.719 38.4563 182.095 39.716 181.896 41.3124H193.307ZM206.223 27.4684V53.4727H201.958V27.4684H206.223ZM216.8 36.3361V47.748C216.8 48.5213 216.974 49.0825 217.323 49.4317C217.698 49.756 218.321 49.9181 219.194 49.9181H221.813V53.4727H218.446C216.525 53.4727 215.053 53.0237 214.031 52.1257C213.008 51.2277 212.497 49.7685 212.497 47.748V36.3361H210.065V32.8564H212.497V27.7303H216.8V32.8564H221.813V36.3361H216.8Z" fill="white"/>
<rect opacity="0.2" width="74.8323" height="74.8323" rx="37.4161" fill="white"/>
<rect x="32.7383" y="31.1797" width="49.8882" height="49.8882" rx="24.9441" fill="white"/>
=======
<svg width="261" height="82" viewBox="0 0 261 82" fill="none" xmlns="http://www.w3.org/2000/svg">
<path d="M112.437 33.3565V51.6904C112.437 54.2347 111.702 56.2178 110.23 57.6396C108.758 59.0365 106.788 59.7349 104.318 59.7349C101.824 59.7349 99.8032 59.0115 98.2567 57.5648C96.7351 56.118 95.9743 54.0976 95.9743 51.5034H101.213C101.238 52.6259 101.499 53.4989 101.998 54.1225C102.522 54.7461 103.27 55.0579 104.243 55.0579C105.191 55.0579 105.915 54.7586 106.413 54.1599C106.912 53.5613 107.162 52.7381 107.162 51.6904V33.3565H112.437ZM137.817 48.6597C137.817 49.4081 137.767 50.0816 137.668 50.6802H122.514C122.639 52.1769 123.163 53.3492 124.086 54.1973C125.008 55.0454 126.143 55.4695 127.49 55.4695C129.436 55.4695 130.82 54.6339 131.644 52.9626H137.293C136.695 54.9581 135.547 56.6044 133.851 57.9015C132.155 59.1737 130.072 59.8098 127.603 59.8098C125.607 59.8098 123.811 59.3732 122.215 58.5002C120.643 57.6022 119.409 56.3425 118.511 54.7212C117.637 53.0998 117.201 51.229 117.201 49.1087C117.201 46.9635 117.637 45.0803 118.511 43.4589C119.384 41.8375 120.606 40.5903 122.177 39.7173C123.749 38.8442 125.557 38.4077 127.603 38.4077C129.573 38.4077 131.332 38.8318 132.878 39.6799C134.45 40.528 135.66 41.7378 136.508 43.3092C137.381 44.8558 137.817 46.6393 137.817 48.6597ZM132.392 47.1631C132.367 45.8161 131.881 44.7435 130.933 43.9453C129.985 43.1221 128.825 42.7106 127.453 42.7106C126.156 42.7106 125.058 43.1097 124.16 43.9079C123.287 44.6812 122.751 45.7662 122.551 47.1631H132.392ZM146.879 31.7851V59.473H141.641V31.7851H146.879ZM157.293 31.7851V59.473H152.054V31.7851H157.293ZM182.299 38.7445L169.465 69.276H163.89L168.38 58.9492L160.073 38.7445H165.948L171.298 53.2245L176.724 38.7445H182.299ZM194.626 43.0473H190.997V59.473H185.684V43.0473H183.326V38.7445H185.684V37.6968C185.684 35.1525 186.407 33.2817 187.854 32.0844C189.301 30.8871 191.483 30.3258 194.402 30.4007V34.8158C193.129 34.7908 192.244 35.0028 191.745 35.4518C191.246 35.9008 190.997 36.7115 190.997 37.8839V38.7445H194.626V43.0473ZM200.677 36.275C199.754 36.275 198.981 35.9881 198.357 35.4144C197.759 34.8158 197.459 34.0799 197.459 33.2069C197.459 32.3338 197.759 31.6104 198.357 31.0367C198.981 30.4381 199.754 30.1387 200.677 30.1387C201.6 30.1387 202.361 30.4381 202.96 31.0367C203.583 31.6104 203.895 32.3338 203.895 33.2069C203.895 34.0799 203.583 34.8158 202.96 35.4144C202.361 35.9881 201.6 36.275 200.677 36.275ZM203.259 38.7445V59.473H198.021V38.7445H203.259ZM213.673 31.7851V59.473H208.434V31.7851H213.673ZM238.117 48.6597C238.117 49.4081 238.067 50.0816 237.968 50.6802H222.814C222.939 52.1769 223.463 53.3492 224.386 54.1973C225.309 55.0454 226.444 55.4695 227.791 55.4695C229.736 55.4695 231.121 54.6339 231.944 52.9626H237.594C236.995 54.9581 235.847 56.6044 234.151 57.9015C232.455 59.1737 230.372 59.8098 227.903 59.8098C225.907 59.8098 224.111 59.3732 222.515 58.5002C220.943 57.6022 219.709 56.3425 218.811 54.7212C217.938 53.0998 217.501 51.229 217.501 49.1087C217.501 46.9635 217.938 45.0803 218.811 43.4589C219.684 41.8375 220.906 40.5903 222.477 39.7173C224.049 38.8442 225.857 38.4077 227.903 38.4077C229.873 38.4077 231.632 38.8318 233.178 39.6799C234.75 40.528 235.96 41.7378 236.808 43.3092C237.681 44.8558 238.117 46.6393 238.117 48.6597ZM232.692 47.1631C232.667 45.8161 232.181 44.7435 231.233 43.9453C230.285 43.1221 229.125 42.7106 227.753 42.7106C226.456 42.7106 225.358 43.1097 224.46 43.9079C223.587 44.6812 223.051 45.7662 222.852 47.1631H232.692ZM249.873 59.8098C248.177 59.8098 246.655 59.5104 245.308 58.9118C243.961 58.2882 242.889 57.4525 242.091 56.4049C241.317 55.3572 240.893 54.1973 240.818 52.9252H246.094C246.194 53.7234 246.58 54.3844 247.254 54.9082C247.952 55.4321 248.813 55.694 249.836 55.694C250.833 55.694 251.607 55.4944 252.155 55.0953C252.729 54.6962 253.016 54.1849 253.016 53.5613C253.016 52.8878 252.667 52.3889 251.968 52.0646C251.295 51.7154 250.21 51.3412 248.713 50.9421C247.167 50.568 245.894 50.1813 244.897 49.7822C243.924 49.3831 243.076 48.772 242.352 47.9488C241.654 47.1257 241.305 46.0157 241.305 44.6188C241.305 43.4714 241.629 42.4237 242.278 41.4758C242.951 40.528 243.899 39.7796 245.121 39.2309C246.368 38.6821 247.828 38.4077 249.499 38.4077C251.968 38.4077 253.939 39.0313 255.411 40.2785C256.882 41.5008 257.693 43.1596 257.843 45.2549H252.829C252.754 44.4317 252.405 43.7832 251.781 43.3092C251.183 42.8103 250.372 42.5609 249.349 42.5609C248.401 42.5609 247.666 42.7355 247.142 43.0847C246.643 43.434 246.393 43.9204 246.393 44.544C246.393 45.2424 246.743 45.7787 247.441 46.1529C248.139 46.5021 249.225 46.8638 250.696 47.2379C252.193 47.6121 253.428 47.9987 254.4 48.3978C255.373 48.7969 256.209 49.4205 256.907 50.2686C257.631 51.0918 258.005 52.1893 258.03 53.5613C258.03 54.7586 257.693 55.8312 257.02 56.779C256.371 57.7269 255.423 58.4752 254.176 59.024C252.954 59.5478 251.519 59.8098 249.873 59.8098Z" fill="white"/>
<rect opacity="0.2" width="74.8323" height="74.8323" rx="30" fill="white"/>
<rect x="32.7391" y="31.1801" width="49.8882" height="49.8882" rx="20" fill="white"/>
>>>>>>> bac3d9d (Initial commit with revamped code)
</svg>
